<svg xmlns="http://www.w3.org/2000/svg" viewBox="0 0 1200 630" width="1200" height="630">
  <defs>
    <linearGradient id="bg" x1="0%" y1="0%" x2="100%" y2="100%">
      <stop offset="0%" stop-color="#0A4F3E"/>
      <stop offset="100%" stop-color="#116653"/>
    </linearGradient>
  </defs>
  <rect width="1200" height="630" fill="url(#bg)"/>
  <circle cx="980" cy="100" r="260" fill="rgba(255,255,255,0.04)"/>
  <circle cx="150" cy="530" r="180" fill="rgba(255,255,255,0.03)"/>
  <circle cx="1100" cy="580" r="120" fill="rgba(255,255,255,0.03)"/>

  <!-- White card -->
  <rect x="580" y="80" width="560" height="470" rx="36" fill="rgba(255,255,255,0.09)"/>

  <!-- Envelope illustration -->
  <rect x="700" y="195" width="320" height="220" rx="14" fill="none" stroke="white" stroke-width="6"/>
  <polyline points="700,195 860,310 1020,195" fill="none" stroke="white" stroke-width="6" stroke-linejoin="round"/>
  <!-- Flap lines -->
  <line x1="700" y1="415" x2="790" y2="325" stroke="white" stroke-width="4" opacity="0.5"/>
  <line x1="1020" y1="415" x2="930" y2="325" stroke="white" stroke-width="4" opacity="0.5"/>
  <!-- Coins below -->
  <circle cx="800" cy="460" r="22" fill="none" stroke="#4ADE80" stroke-width="5"/>
  <circle cx="860" cy="460" r="22" fill="none" stroke="#4ADE80" stroke-width="5"/>
  <circle cx="920" cy="460" r="22" fill="none" stroke="#4ADE80" stroke-width="5"/>

  <!-- Left content -->
  <rect x="60" y="60" width="200" height="38" rx="19" fill="rgba(255,255,255,0.15)"/>
  <text x="160" y="84" text-anchor="middle" font-family="system-ui,sans-serif" font-size="13" font-weight="700" fill="white" letter-spacing="1.5">TUTORIAL</text>

  <text x="60" y="200" font-family="Georgia,serif" font-size="52" font-weight="700" fill="white">Mulai</text>
  <text x="60" y="265" font-family="Georgia,serif" font-size="52" font-weight="700" fill="white">Envelope</text>
  <text x="60" y="330" font-family="Georgia,serif" font-size="52" font-weight="700" fill="white">Budgeting</text>
  <text x="60" y="395" font-family="system-ui,sans-serif" font-size="22" fill="rgba(255,255,255,0.6)">dalam 10 menit</text>

  <text x="60" y="580" font-family="Georgia,serif" font-size="26" font-weight="700" fill="rgba(255,255,255,0.85)">Jatahku</text>
  <text x="170" y="580" font-family="system-ui,sans-serif" font-size="17" fill="rgba(255,255,255,0.45)">jatahku.com</text>
</svg>
