<svg xmlns="http://www.w3.org/2000/svg" viewBox="0 0 1200 630" width="1200" height="630">
  <defs>
    <linearGradient id="bg" x1="0%" y1="0%" x2="100%" y2="100%">
      <stop offset="0%" stop-color="#0A4F3E"/>
      <stop offset="100%" stop-color="#116653"/>
    </linearGradient>
  </defs>
  <rect width="1200" height="630" fill="url(#bg)"/>
  <circle cx="980" cy="100" r="260" fill="rgba(255,255,255,0.04)"/>
  <circle cx="150" cy="530" r="180" fill="rgba(255,255,255,0.03)"/>

  <!-- White card -->
  <rect x="580" y="80" width="560" height="470" rx="36" fill="rgba(255,255,255,0.09)"/>

  <!-- Chat bubble 1 (incoming) -->
  <rect x="650" y="150" width="280" height="70" rx="20" fill="rgba(255,255,255,0.18)"/>
  <polygon points="650,185 625,200 655,205" fill="rgba(255,255,255,0.18)"/>
  <text x="790" y="193" text-anchor="middle" font-family="monospace" font-size="22" font-weight="700" fill="white">kopi 18k</text>

  <!-- Chat bubble 2 (reply) -->
  <rect x="670" y="250" width="340" height="110" rx="20" fill="#0F6E56"/>
  <polygon points="1010,285 1035,270 1008,315" fill="#0F6E56"/>
  <text x="840" y="296" text-anchor="middle" font-family="system-ui,sans-serif" font-size="16" fill="rgba(255,255,255,0.8)">✅ Rp18.000 → Makan</text>
  <text x="840" y="325" text-anchor="middle" font-family="system-ui,sans-serif" font-size="15" fill="rgba(255,255,255,0.6)">Sisa: Rp 482.000</text>

  <!-- Chat bubble 3 -->
  <rect x="650" y="390" width="200" height="55" rx="20" fill="rgba(255,255,255,0.18)"/>
  <polygon points="650,410 625,425 655,430" fill="rgba(255,255,255,0.18)"/>
  <text x="750" y="423" text-anchor="middle" font-family="monospace" font-size="20" font-weight="700" fill="white">/status</text>

  <!-- Left content -->
  <rect x="60" y="60" width="200" height="38" rx="19" fill="rgba(255,255,255,0.15)"/>
  <text x="160" y="84" text-anchor="middle" font-family="system-ui,sans-serif" font-size="13" font-weight="700" fill="white" letter-spacing="1.5">TUTORIAL</text>

  <text x="60" y="200" font-family="Georgia,serif" font-size="50" font-weight="700" fill="white">Catat</text>
  <text x="60" y="260" font-family="Georgia,serif" font-size="50" font-weight="700" fill="white">Pengeluaran</text>
  <text x="60" y="320" font-family="Georgia,serif" font-size="50" font-weight="700" fill="white">Lewat Chat</text>
  <text x="60" y="385" font-family="system-ui,sans-serif" font-size="20" fill="rgba(255,255,255,0.6)">@JatahkuBot di Telegram</text>

  <text x="60" y="580" font-family="Georgia,serif" font-size="26" font-weight="700" fill="rgba(255,255,255,0.85)">Jatahku</text>
  <text x="170" y="580" font-family="system-ui,sans-serif" font-size="17" fill="rgba(255,255,255,0.45)">jatahku.com</text>
</svg>
