<svg xmlns="http://www.w3.org/2000/svg" viewBox="0 0 1200 630" width="1200" height="630">
  <defs>
    <linearGradient id="bg" x1="0%" y1="0%" x2="100%" y2="100%">
      <stop offset="0%" stop-color="#0A4F3E"/>
      <stop offset="100%" stop-color="#116653"/>
    </linearGradient>
  </defs>
  <rect width="1200" height="630" fill="url(#bg)"/>
  <circle cx="980" cy="100" r="260" fill="rgba(255,255,255,0.04)"/>
  <circle cx="150" cy="530" r="180" fill="rgba(255,255,255,0.03)"/>

  <!-- White card -->
  <rect x="580" y="80" width="560" height="470" rx="36" fill="rgba(255,255,255,0.09)"/>

  <!-- Checklist / steps -->
  <!-- Step 1 -->
  <circle cx="690" cy="185" r="26" fill="rgba(255,255,255,0.9)"/>
  <text x="690" y="194" text-anchor="middle" font-family="system-ui,sans-serif" font-size="20" font-weight="800" fill="#0F6E56">1</text>
  <rect x="730" y="167" width="360" height="36" rx="10" fill="rgba(255,255,255,0.15)"/>
  <text x="910" y="191" text-anchor="middle" font-family="system-ui,sans-serif" font-size="16" fill="white">Daftar akun</text>
  <line x1="690" y1="211" x2="690" y2="248" stroke="rgba(255,255,255,0.3)" stroke-width="3" stroke-dasharray="5,4"/>

  <!-- Step 2 -->
  <circle cx="690" cy="270" r="26" fill="rgba(255,255,255,0.9)"/>
  <text x="690" y="279" text-anchor="middle" font-family="system-ui,sans-serif" font-size="20" font-weight="800" fill="#0F6E56">2</text>
  <rect x="730" y="252" width="360" height="36" rx="10" fill="rgba(255,255,255,0.15)"/>
  <text x="910" y="276" text-anchor="middle" font-family="system-ui,sans-serif" font-size="16" fill="white">Setup amplop via wizard</text>
  <line x1="690" y1="296" x2="690" y2="333" stroke="rgba(255,255,255,0.3)" stroke-width="3" stroke-dasharray="5,4"/>

  <!-- Step 3 -->
  <circle cx="690" cy="355" r="26" fill="rgba(255,255,255,0.9)"/>
  <text x="690" y="364" text-anchor="middle" font-family="system-ui,sans-serif" font-size="20" font-weight="800" fill="#0F6E56">3</text>
  <rect x="730" y="337" width="360" height="36" rx="10" fill="rgba(255,255,255,0.15)"/>
  <text x="910" y="361" text-anchor="middle" font-family="system-ui,sans-serif" font-size="16" fill="white">Hubungkan Telegram</text>
  <line x1="690" y1="381" x2="690" y2="418" stroke="rgba(255,255,255,0.3)" stroke-width="3" stroke-dasharray="5,4"/>

  <!-- Step 4 -->
  <circle cx="690" cy="440" r="26" fill="#4ADE80"/>
  <text x="690" y="449" text-anchor="middle" font-family="system-ui,sans-serif" font-size="20" font-weight="800" fill="white">4</text>
  <rect x="730" y="422" width="360" height="36" rx="10" fill="rgba(74,222,128,0.2)"/>
  <text x="910" y="446" text-anchor="middle" font-family="system-ui,sans-serif" font-size="16" fill="white">Catat "kopi 18k" ✓</text>

  <!-- Left content -->
  <rect x="60" y="60" width="200" height="38" rx="19" fill="rgba(255,255,255,0.15)"/>
  <text x="160" y="84" text-anchor="middle" font-family="system-ui,sans-serif" font-size="13" font-weight="700" fill="white" letter-spacing="1.5">TUTORIAL</text>

  <text x="60" y="200" font-family="Georgia,serif" font-size="50" font-weight="700" fill="white">Panduan</text>
  <text x="60" y="260" font-family="Georgia,serif" font-size="50" font-weight="700" fill="white">Lengkap</text>
  <text x="60" y="320" font-family="Georgia,serif" font-size="50" font-weight="700" fill="white">Jatahku</text>
  <text x="60" y="385" font-family="system-ui,sans-serif" font-size="20" fill="rgba(255,255,255,0.6)">Dari daftar sampai catat</text>
  <text x="60" y="412" font-family="system-ui,sans-serif" font-size="20" fill="rgba(255,255,255,0.6)">pengeluaran pertama</text>

  <text x="60" y="580" font-family="Georgia,serif" font-size="26" font-weight="700" fill="rgba(255,255,255,0.85)">Jatahku</text>
  <text x="170" y="580" font-family="system-ui,sans-serif" font-size="17" fill="rgba(255,255,255,0.45)">jatahku.com</text>
</svg>
